<svg xmlns="http://www.w3.org/2000/svg" viewBox="0 0 96 96">
  <defs>
    <linearGradient id="knssSh" x1="0" y1="0" x2="1" y2="1">
      <stop offset="0" stop-color="#16325F"/><stop offset="1" stop-color="#0B1F3A"/>
    </linearGradient>
  </defs>
  <path d="M48 6 12 20v26c0 22 15.4 37.2 36 44 20.6-6.8 36-22 36-44V20Z" fill="url(#knssSh)"/>
  <path d="M48 13.5 19 25v21c0 17.8 12.2 30.6 29 36.7C64.8 76.6 77 63.8 77 46V25Z" fill="none" stroke="#E8A23D" stroke-width="2.6" opacity=".9"/>
  <path d="M35 33h9v30h-9zM61 33l-17 15 17 15v-8.6L54.5 48 61 41.6z" fill="#fff"/>
  <circle cx="66.5" cy="61.5" r="4" fill="#E8A23D"/>
  <circle cx="66.5" cy="61.5" r="7.6" fill="none" stroke="#E8A23D" stroke-width="1.6" opacity=".6"/>
</svg>
